<?xml version="1.0" encoding="UTF-8"?>
<svg width="68px" height="70px" viewBox="0 0 68 70" version="1.1" xmlns="http://www.w3.org/2000/svg" xmlns:xlink="http://www.w3.org/1999/xlink">
    <!-- Generator: Sketch 40.3 (33839) - http://www.bohemiancoding.com/sketch -->
    <title>Group</title>
    <desc>Created with Sketch.</desc>
    <defs></defs>
    <g id="Page-1" stroke="none" stroke-width="1" fill="none" fill-rule="evenodd">
        <g id="noun_671076_cc" transform="translate(-14.000000, 0.000000)" fill="#9B9C9E">
            <g id="Artboard">
                <g id="Group" transform="translate(14.000000, 0.000000)">
                    <g transform="translate(34.000000, 35.000000) rotate(-90.000000) translate(-34.000000, -35.000000) translate(-1.000000, 1.000000)" id="Shape">
                        <path d="M14,10.9472656 L14,3 C14,1.6192881 12.8807119,0.5 11.5,0.5 C10.1192881,0.5 9,1.6192881 9,3 L9,11.1728516 M9,28.1630859 L9,65 L9,65 C9,66.3807119 10.1192881,67.5 11.5,67.5 C12.8807119,67.5 14,66.3807119 14,65 L14,28.0947266"></path>
                        <path d="M22.9545455,19.46875 C22.9545455,13.2722584 17.9273777,8.25 11.7272727,8.25 C5.5271677,8.25 0.5,13.2722584 0.5,19.46875 C0.5,25.6652416 5.5271677,30.6875 11.7272727,30.6875 C17.9273777,30.6875 22.9545455,25.6652416 22.9545455,19.46875 L22.9545455,19.46875 Z M5.5,19.46875 C5.5,16.0347763 8.2874985,13.25 11.7272727,13.25 C15.167047,13.25 17.9545455,16.0347763 17.9545455,19.46875 C17.9545455,22.9027237 15.167047,25.6875 11.7272727,25.6875 C8.2874985,25.6875 5.5,22.9027237 5.5,19.46875 L5.5,19.46875 Z"></path>
                        <path d="M61,10.9472656 L61,3 C61,1.6192881 59.8807119,0.5 58.5,0.5 C57.1192881,0.5 56,1.6192881 56,3 L56,11.1728516 M56,28.1630859 L56,65 L56,65 C56,66.3807119 57.1192881,67.5 58.5,67.5 C59.8807119,67.5 61,66.3807119 61,65 L61,28.0947266"></path>
                        <path d="M69.9545455,19.46875 C69.9545455,13.2722584 64.9273777,8.25 58.7272727,8.25 C52.5271677,8.25 47.5,13.2722584 47.5,19.46875 C47.5,25.6652416 52.5271677,30.6875 58.7272727,30.6875 C64.9273777,30.6875 69.9545455,25.6652416 69.9545455,19.46875 L69.9545455,19.46875 Z M52.5,19.46875 C52.5,16.0347763 55.2874985,13.25 58.7272727,13.25 C62.167047,13.25 64.9545455,16.0347763 64.9545455,19.46875 C64.9545455,22.9027237 62.167047,25.6875 58.7272727,25.6875 C55.2874985,25.6875 52.5,22.9027237 52.5,19.46875 L52.5,19.46875 Z"></path>
                        <path d="M38,10.9472656 L38,3 C38,1.6192881 36.8807119,0.5 35.5,0.5 C34.1192881,0.5 33,1.6192881 33,3 L33,11.1728516 M33,28.1630859 L33,65 L33,65 C33,66.3807119 34.1192881,67.5 35.5,67.5 C36.8807119,67.5 38,66.3807119 38,65 L38,28.0947266" transform="translate(35.500000, 34.000000) rotate(180.000000) translate(-35.500000, -34.000000) "></path>
                        <path d="M46.4999995,48.53125 C46.4999995,42.3347584 41.4728318,37.3125 35.2727268,37.3125 C29.0726218,37.3125 24.045454,42.3347584 24.045454,48.53125 C24.045454,54.7277416 29.0726218,59.75 35.2727268,59.75 C41.4728318,59.75 46.4999995,54.7277416 46.4999995,48.53125 L46.4999995,48.53125 Z M29.045454,48.53125 C29.045454,45.0972763 31.8329525,42.3125 35.2727268,42.3125 C38.712501,42.3125 41.4999995,45.0972763 41.4999995,48.53125 C41.4999995,51.9652237 38.712501,54.75 35.2727268,54.75 C31.8329525,54.75 29.045454,51.9652237 29.045454,48.53125 L29.045454,48.53125 Z" transform="translate(35.272727, 48.531250) rotate(180.000000) translate(-35.272727, -48.531250) "></path>
                    </g>
                </g>
            </g>
        </g>
    </g>
</svg>