<?xml version="1.0" encoding="UTF-8"?>
<svg width="22px" height="22px" viewBox="0 0 22 22" version="1.1" xmlns="http://www.w3.org/2000/svg" xmlns:xlink="http://www.w3.org/1999/xlink">
    <!-- Generator: Sketch 40.3 (33839) - http://www.bohemiancoding.com/sketch -->
    <title>Group 5 Copy</title>
    <desc>Created with Sketch.</desc>
    <defs></defs>
    <g id="Page-1" stroke="none" stroke-width="1" fill="none" fill-rule="evenodd">
        <g id="Tablet-Portrait" transform="translate(-441.000000, -163.000000)">
            <g id="Group-5-Copy" transform="translate(442.000000, 164.000000)">
                <g id="noun_593185_cc-copy-2" stroke="#9B9C9E" stroke-width="0.5" fill="#9B9C9E">
                    <path d="M10,0.02725 C4.501,0.02725 0.02725,4.501 0.02725,10 C0.02725,15.499 4.501,19.97275 10,19.97275 C15.499,19.97275 19.97275,15.499 19.97275,10 C19.97275,4.501 15.499,0.02725 10,0.02725 L10,0.02725 Z M10,19.22275 C4.9145,19.22275 0.77725,15.0855 0.77725,10 C0.77725,4.9145 4.9145,0.77725 10,0.77725 C15.0855,0.77725 19.22275,4.9145 19.22275,10 C19.22275,15.0855 15.0855,19.22275 10,19.22275 L10,19.22275 Z" id="Shape"></path>
                </g>
                <path d="M9.6,4.8 C9.6,4.8 9.6,5.65879576 9.6,6.74311135 L9.6,11.5808217 L13.4743305,14.2528328" id="Path-6" stroke="#979797" stroke-width="1.5" stroke-linecap="round"></path>
            </g>
        </g>
    </g>
</svg>