<?xml version="1.0" encoding="UTF-8"?>
<svg width="57px" height="65px" viewBox="0 0 57 65" version="1.1" xmlns="http://www.w3.org/2000/svg" xmlns:xlink="http://www.w3.org/1999/xlink">
    <!-- Generator: Sketch 40.3 (33839) - http://www.bohemiancoding.com/sketch -->
    <title>Group 6</title>
    <desc>Created with Sketch.</desc>
    <defs></defs>
    <g id="Page-1" stroke="none" stroke-width="1" fill="none" fill-rule="evenodd">
        <g id="noun_303475_cc" transform="translate(-9.000000, 0.000000)" fill="#9B9C9E">
            <g id="Group">
                <g id="Group-6" transform="translate(9.000000, 0.000000)">
                    <path d="M28.6,33.3 C20,33.3 13,25.8 13,16.7 C13,7.6 20,0.2 28.6,0.2 C37.2,0.2 44.2,7.6 44.2,16.7 C44.1,25.8 37.1,33.3 28.6,33.3 L28.6,33.3 Z M28.6,4.2 C22.2,4.2 17,9.8 17,16.7 C17,23.6 22.2,29.2 28.6,29.2 C35,29.2 40.2,23.6 40.2,16.7 C40.1,9.8 34.9,4.2 28.6,4.2 L28.6,4.2 Z" id="Shape"></path>
                    <path d="M22.3,12.4 C25.1,15.4 28.9,17 33,17 C35.5,17 37.9,16.4 40.1,15.2 C40,14.5 39.9,13.8 39.7,13.1 C37.7,14.3 35.4,15 33,15 C29,15 25.4,13.2 22.9,10 C22.7,9.7 22.3,9.6 22,9.6 C21.6,9.6 21.3,9.9 21.2,10.2 C20.5,11.9 19.1,13.2 17.3,13.7 C17.1,14.4 17.1,15.1 17,15.8 C19.2,15.5 21.1,14.3 22.3,12.4 L22.3,12.4 Z" id="Shape"></path>
                    <path d="M41.5,35.1 C39.5,33.6 37.4,32.5 35.1,31.8 C31,33.8 26,33.8 21.9,31.8 C19.6,32.5 17.5,33.7 15.5,35.1 L13.1,31.9 C15.7,29.9 18.5,28.5 21.6,27.7 C22.1,27.6 22.7,27.6 23.1,27.9 C26.4,29.8 30.5,29.8 33.9,27.9 C34.4,27.6 34.9,27.6 35.4,27.7 C38.4,28.6 41.3,30 43.9,31.9 L41.5,35.1 L41.5,35.1 Z" id="Shape"></path>
                    <path d="M28.6,64.2 C28.3,64.2 28,64.1 27.7,64 L6.6,53.8 C5.9,53.5 5.5,52.8 5.5,52 L5.5,47.3 C5.5,46.2 6.4,45.3 7.5,45.3 C9.1,45.3 10.5,44 10.5,42.3 C10.5,40.6 9.2,39.3 7.5,39.3 C6.4,39.3 5.5,38.4 5.5,37.3 L5.5,30.1 C5.5,29.4 5.9,28.8 6.4,28.4 C7,28 7.7,28 8.3,28.3 L28.5,38.1 L48.7,28.3 C49.3,28 50,28 50.6,28.4 C51.2,28.8 51.5,29.4 51.5,30.1 L51.5,37.3 C51.5,38.4 50.6,39.3 49.5,39.3 C47.9,39.3 46.5,40.6 46.5,42.3 C46.5,44 47.8,45.3 49.5,45.3 C50.6,45.3 51.5,46.2 51.5,47.3 L51.5,52 C51.5,52.8 51.1,53.5 50.4,53.8 L29.4,64 C29.2,64.1 28.9,64.2 28.6,64.2 L28.6,64.2 Z M9.5,50.7 L28.6,59.9 L47.7,50.7 L47.7,49 C44.8,48.1 42.7,45.5 42.7,42.3 C42.7,39.1 44.8,36.5 47.7,35.6 L47.7,33.3 L29.5,42.1 C29,42.4 28.3,42.4 27.8,42.1 L9.6,33.3 L9.6,35.6 C12.5,36.5 14.6,39.1 14.6,42.3 C14.6,45.5 12.5,48.1 9.6,49 L9.6,50.7 L9.5,50.7 Z" id="Shape"></path>
                    <rect id="Rectangle-path" x="27.6" y="40.3" width="2" height="21.9"></rect>
                    <path d="M7.5,49.3 C3.7,49.3 0.5,46.2 0.5,42.3 C0.5,38.4 3.6,35.3 7.5,35.3 C11.4,35.3 14.5,38.4 14.5,42.3 C14.5,46.2 11.3,49.3 7.5,49.3 L7.5,49.3 Z M7.5,39.3 C5.9,39.3 4.5,40.6 4.5,42.3 C4.5,44 5.8,45.3 7.5,45.3 C9.2,45.3 10.5,44 10.5,42.3 C10.5,40.6 9.1,39.3 7.5,39.3 L7.5,39.3 Z" id="Shape"></path>
                    <path d="M49.7,49.3 C45.9,49.3 42.7,46.2 42.7,42.3 C42.7,38.4 45.8,35.3 49.7,35.3 C53.6,35.3 56.7,38.4 56.7,42.3 C56.7,46.2 53.5,49.3 49.7,49.3 L49.7,49.3 Z M49.7,39.3 C48.1,39.3 46.7,40.6 46.7,42.3 C46.7,44 48,45.3 49.7,45.3 C51.4,45.3 52.7,44 52.7,42.3 C52.7,40.6 51.3,39.3 49.7,39.3 L49.7,39.3 Z" id="Shape"></path>
                </g>
            </g>
        </g>
    </g>
</svg>