<?xml version="1.0" encoding="UTF-8"?>
<svg width="29px" height="29px" viewBox="0 0 29 29" version="1.1" xmlns="http://www.w3.org/2000/svg" xmlns:xlink="http://www.w3.org/1999/xlink">
    <!-- Generator: Sketch 40.3 (33839) - http://www.bohemiancoding.com/sketch -->
    <title>noun_593185_cc</title>
    <desc>Created with Sketch.</desc>
    <defs></defs>
    <g id="Page-1" stroke="none" stroke-width="1" fill="none" fill-rule="evenodd">
        <g id="Overzichtspagina-Copy-2" transform="translate(-337.000000, -8.000000)" stroke="#9B9C9E" stroke-width="0.5" fill="#9B9C9E">
            <g id="noun_593185_cc" transform="translate(338.000000, 9.000000)">
                <path d="M13.5,0.0367875 C6.07635,0.0367875 0.0367875,6.07635 0.0367875,13.5 C0.0367875,20.92365 6.07635,26.9632125 13.5,26.9632125 C20.92365,26.9632125 26.9632125,20.92365 26.9632125,13.5 C26.9632125,6.07635 20.92365,0.0367875 13.5,0.0367875 L13.5,0.0367875 Z M13.5,25.9507125 C6.634575,25.9507125 1.0492875,20.365425 1.0492875,13.5 C1.0492875,6.634575 6.634575,1.0492875 13.5,1.0492875 C20.365425,1.0492875 25.9507125,6.634575 25.9507125,13.5 C25.9507125,20.365425 20.365425,25.9507125 13.5,25.9507125 L13.5,25.9507125 Z M13.5,15.9384375 C15.8274,15.9384375 17.720775,13.66065 17.720775,10.86075 C17.720775,8.207325 15.9850125,6.3541125 13.5,6.3541125 C11.0149875,6.3541125 9.279225,8.2069875 9.279225,10.86075 C9.279225,13.66065 11.1726,15.9384375 13.5,15.9384375 L13.5,15.9384375 Z M13.5,7.3666125 C15.419025,7.3666125 16.708275,8.7706125 16.708275,10.86075 C16.708275,13.102425 15.2688375,14.9259375 13.5,14.9259375 C11.7311625,14.9259375 10.291725,13.102425 10.291725,10.86075 C10.291725,8.7706125 11.580975,7.3666125 13.5,7.3666125 L13.5,7.3666125 Z M13.5,16.89255 C9.9829125,16.89255 7.19415,18.8109 5.8485375,22.1551875 C5.74425,22.414725 5.8698,22.7093625 6.1293375,22.81365 C6.38955,22.91895 6.68385,22.7923875 6.7881375,22.53285 C7.988625,19.548675 10.3723875,17.90505 13.5,17.90505 C16.6276125,17.90505 19.011375,19.548675 20.2122,22.53285 C20.2915125,22.7302875 20.481525,22.8501 20.6823375,22.8501 C20.7451125,22.8501 20.8089,22.838625 20.871,22.81365 C21.1305375,22.709025 21.256425,22.4143875 21.1518,22.1551875 C19.80585,18.8105625 17.0170875,16.89255 13.5,16.89255 L13.5,16.89255 Z" id="Shape"></path>
            </g>
        </g>
    </g>
</svg>