<?xml version="1.0" encoding="UTF-8"?>
<svg width="40px" height="27px" viewBox="0 0 40 27" version="1.1" xmlns="http://www.w3.org/2000/svg" xmlns:xlink="http://www.w3.org/1999/xlink">
    <!-- Generator: Sketch 40.3 (33839) - http://www.bohemiancoding.com/sketch -->
    <title>noun_602520_cc (1)</title>
    <desc>Created with Sketch.</desc>
    <defs></defs>
    <g id="Page-1" stroke="none" stroke-width="1" fill="none" fill-rule="evenodd">
        <g id="Overzichtspagina-Copy-2" transform="translate(-168.000000, -612.000000)" fill="#FFFFFF">
            <g id="Group" transform="translate(153.000000, 591.000000)">
                <g id="noun_602520_cc-(1)" transform="translate(15.244186, 20.860465)">
                    <path d="M39.0541094,23.4463605 L34.3404466,26.578907 C33.3785677,27.2154186 32.5944767,26.7971395 32.5944767,25.6468721 L32.5944767,23.8555465 L30.11912,23.8555465 C26.9183201,23.8640906 23.8470883,22.5953266 21.589852,20.332 L20.1174022,18.8634767 C19.5449114,18.2453488 19.5634712,17.2868076 20.1594635,16.6911841 C20.7554558,16.0955606 21.7165199,16.075084 22.3374736,16.6447791 L23.8099234,18.1133023 C25.4782311,19.7866583 27.7484833,20.7247534 30.1145613,20.7184535 L32.5944767,20.7184535 L32.5944767,18.9271279 C32.5944767,17.7768605 33.3785677,17.3585814 34.3404466,17.995093 L39.0541094,21.1276395 C40.0159884,21.7641512 40.0159884,22.8098488 39.0541094,23.4463605 L39.0541094,23.4463605 Z M30.4199921,6.56061628 L32.5944767,6.56061628 L32.5944767,8.35194186 C32.5944767,9.5022093 33.3785677,9.92048837 34.3404466,9.28397674 L39.0541094,6.15143023 C40.0159884,5.5149186 40.0159884,4.46922093 39.0541094,3.8327093 L34.3404466,0.700162791 C33.3785677,0.0636511628 32.5944767,0.481930233 32.5944767,1.63219767 L32.5944767,3.42352326 L30.4199921,3.42352326 C27.2160344,3.41254715 24.1410677,4.68149762 21.8816068,6.94706977 L10.6946353,18.1133023 C9.02632753,19.7866583 6.75607534,20.7247534 4.38999736,20.7184535 L1.91464059,20.7184535 C1.04604001,20.7184535 0.341900106,21.4207157 0.341900106,22.287 C0.341900106,23.1532843 1.04604001,23.8555465 1.91464059,23.8555465 L4.38999736,23.8555465 C7.59079729,23.8640906 10.662029,22.5953266 12.9192653,20.332 L24.1153541,9.16576744 C25.7836619,7.49241148 28.0539141,6.55431635 30.4199921,6.56061628 L30.4199921,6.56061628 Z M1.91464059,6.56061628 L4.10280127,6.56061628 C6.46414115,6.55795833 8.72879421,7.49577414 10.3937632,9.16576744 L12.5500132,11.3162674 C13.1655867,11.9289438 14.1626079,11.9279261 14.7769225,11.3139941 C15.3912371,10.7000622 15.3902167,9.70569971 14.7746432,9.09302326 L12.6183932,6.94252326 C10.3637449,4.68422774 7.29820564,3.41741827 4.10280127,3.42352326 L1.91464059,3.42352326 C1.35275452,3.42352323 0.833550366,3.7224865 0.552607322,4.20779649 C0.271664279,4.69310648 0.271664279,5.29103305 0.552607322,5.77634304 C0.833550366,6.26165303 1.35275452,6.5606163 1.91464059,6.56061628 L1.91464059,6.56061628 Z" id="Shape"></path>
                </g>
            </g>
        </g>
    </g>
</svg>