<?xml version="1.0" encoding="UTF-8"?>
<svg width="22px" height="20px" viewBox="0 0 22 20" version="1.1" xmlns="http://www.w3.org/2000/svg" xmlns:xlink="http://www.w3.org/1999/xlink">
    <!-- Generator: Sketch 40.3 (33839) - http://www.bohemiancoding.com/sketch -->
    <title>Shape</title>
    <desc>Created with Sketch.</desc>
    <defs></defs>
    <g id="Page-1" stroke="none" stroke-width="1" fill="none" fill-rule="evenodd">
        <path d="M20.302,7.025 L14.459,6.469 L11.861,0.872 C11.703,0.533 11.374,0.322 11,0.322 C10.626,0.322 10.296,0.533 10.139,0.872 L7.541,6.468 L1.699,7.025 C1.331,7.059 1.023,7.297 0.896,7.644 C0.769,7.992 0.852,8.372 1.112,8.636 L5.403,12.99 L4.371,18.538 C4.305,18.892 4.442,19.248 4.728,19.466 C5.015,19.685 5.394,19.724 5.718,19.566 L11,17.004 L16.281,19.581 C16.414,19.646 16.557,19.678 16.699,19.678 C16.902,19.678 17.103,19.612 17.272,19.483 C17.559,19.265 17.697,18.909 17.631,18.554 L16.598,12.985 L20.888,8.635 C21.148,8.371 21.231,7.992 21.104,7.644 C20.977,7.297 20.67,7.059 20.302,7.025 L20.302,7.025 Z M15.748,12.496 C15.639,12.606 15.591,12.763 15.619,12.916 L16.697,18.728 L11.208,16.049 C11.142,16.017 11.071,16.001 11,16.001 C10.929,16.001 10.858,16.017 10.793,16.049 L5.303,18.712 L6.381,12.92 C6.41,12.768 6.362,12.611 6.253,12.5 L1.788,7.97 L7.902,7.388 C8.07,7.372 8.216,7.268 8.288,7.115 L10.999,1.268 L11.001,1.271 L11.001,1.271 L13.713,7.115 C13.784,7.268 13.931,7.372 14.099,7.388 L20.213,7.97 L15.748,12.496 L15.748,12.496 Z" id="Shape" fill="#9B9C9E"></path>
    </g>
</svg>