<?xml version="1.0" encoding="utf-8"?>
<!-- Generator: Adobe Illustrator 20.1.0, SVG Export Plug-In . SVG Version: 6.00 Build 0)  -->
<svg version="1.1" id="Laag_1" xmlns="http://www.w3.org/2000/svg" xmlns:xlink="http://www.w3.org/1999/xlink" x="0px" y="0px"
	 viewBox="0 0 22 20" style="enable-background:new 0 0 22 20;" xml:space="preserve">
<style type="text/css">
	.st0{fill:#9B9C9E;}
</style>
<title>Shape</title>
<desc>Created with Sketch.</desc>
<g id="Page-1">
	<path id="Shape" class="st0" d="M20.3,7l-5.8-0.6l-2.6-5.6c-0.2-0.3-0.5-0.5-0.9-0.5s-0.7,0.2-0.9,0.5L7.5,6.5L1.7,7
		C1.3,7.1,1,7.3,0.9,7.6c-0.1,0.3,0,0.7,0.2,1L5.4,13l-1,5.5c-0.1,0.4,0.1,0.7,0.4,0.9c0.3,0.2,0.7,0.3,1,0.1L11,17l5.3,2.6
		c0.1,0.1,0.3,0.1,0.4,0.1c0.2,0,0.4-0.1,0.6-0.2c0.3-0.2,0.4-0.6,0.4-0.9l-1-5.6l4.3-4.3c0.3-0.3,0.3-0.6,0.2-1
		C21,7.3,20.7,7.1,20.3,7L20.3,7z M15.5,12.4c-0.1,0.1-0.1,0.3-0.1,0.4l1,5.5l-5.2-2.5c-0.1,0-0.1,0-0.2,0c-0.1,0-0.1,0-0.2,0
		l-5.2,2.5l1-5.5c0-0.1,0-0.3-0.1-0.4L2.3,8.1l5.8-0.5c0.2,0,0.3-0.1,0.4-0.3L11,1.8l0,0l0,0l2.6,5.5c0.1,0.1,0.2,0.2,0.4,0.3
		l5.8,0.5L15.5,12.4L15.5,12.4z"/>
</g>
</svg>
